<svg width="652" height="652" viewBox="0 0 652 652" fill="none" xmlns="http://www.w3.org/2000/svg">
<path d="M652 326C652 506.045 506.045 652 326 652C145.955 652 0 506.045 0 326C0 145.955 145.955 0 326 0C506.045 0 652 145.955 652 326Z" fill="black"/>
<path d="M174 207.5C174 185.685 191.685 168 213.5 168H438.5C460.315 168 478 185.685 478 207.5V207.5C478 229.315 460.315 247 438.5 247H213.5C191.685 247 174 229.315 174 207.5V207.5Z M174 326.5C174 304.685 191.685 287 213.5 287H438.5C460.315 287 478 304.685 478 326.5V326.5C478 348.315 460.315 366 438.5 366H213.5C191.685 366 174 348.315 174 326.5V326.5Z M174 445.5C174 423.685 191.685 406 213.5 406H438.5C460.315 406 478 423.685 478 445.5V445.5C478 467.315 460.315 485 438.5 485H213.5C191.685 485 174 467.315 174 445.5V445.5Z" fill="#00E0FF"/>
</svg>
