<svg width="652" height="652" viewBox="0 0 652 652" fill="none" xmlns="http://www.w3.org/2000/svg">
<circle cx="326" cy="326" r="326" fill="black"/>
<path d="M191 211C191 188.909 208.909 171 231 171C253.091 171 271 188.909 271 211V435.918C271 458.009 253.091 475.918 231 475.918C208.909 475.918 191 458.009 191 435.918V211Z M381 211C381 188.909 398.909 171 421 171C443.091 171 461 188.909 461 211V435.918C461 458.009 443.091 475.918 421 475.918C398.909 475.918 381 458.009 381 435.918V211Z" fill="#00E0FF"/>
<path d="" fill="#00E0FF"/>
</svg>
